<?xml version="1.0" encoding="UTF-8"?>
<svg id="Layer_1" data-name="Layer 1" xmlns="http://www.w3.org/2000/svg" viewBox="0 0 284.77 103.24">
  <defs>
    <style>
      .cls-1 {
        fill: #62a443;
      }

      .cls-2 {
        fill: #629f43;
      }

      .cls-3 {
        fill: #14264c;
      }

      .cls-4 {
        fill: #87c540;
      }
    </style>
  </defs>
  <path class="cls-3" d="M.64,36.56h15.54s7.24-1.6,11.25,7.4c.73,1.65,2.08,4.28,2.94,5.87l9.36,17.32c.88,1.63,3.04,2.05,4.47.86,7.59-6.35,18.08-18.53,37.28-23.6,0,0-29.77,9.08-46.26,55.06L.64,36.56Z"/>
  <path class="cls-4" d="M94.59,43.71s-32.38,3.79-53.45,55.79h3.19c8.33,0,15.73-5.35,18.28-13.28,3.37-10.51,11.67-26.1,31.99-42.51Z"/>
  <rect class="cls-4" x="69.88" y="28.79" width="12.05" height="12.05" rx="2.2" ry="2.2"/>
  <rect class="cls-2" x="87.96" y="30.69" width="7.13" height="7.13" rx="1.3" ry="1.3"/>
  <rect class="cls-2" x="80.58" y="15.08" width="9.83" height="9.83" rx="1.65" ry="1.65"/>
  <rect class="cls-2" x="95.45" y="17.18" width="5.63" height="5.63" rx="1.41" ry="1.41"/>
  <rect class="cls-4" x="89.98" y="3.74" width="6.5" height="6.5" rx="1.35" ry="1.35"/>
  <g>
    <path class="cls-3" d="M111.32,48.54l10.43,30.02,10.49-30.02h6.37l-13.11,36.29h-7.5l-13.06-36.29h6.37Z"/>
    <path class="cls-3" d="M169.1,71.82h-21.79c.1,2.91.91,5.07,2.42,6.48,1.51,1.41,3.37,2.11,5.6,2.11,1.95,0,3.61-.5,4.96-1.49,1.35-.99,2.18-2.31,2.49-3.96h6.27c-.38,1.99-1.17,3.75-2.36,5.29-1.2,1.54-2.76,2.75-4.68,3.62-1.92.87-4.06,1.31-6.43,1.31-2.74,0-5.17-.58-7.27-1.75-2.11-1.16-3.76-2.84-4.96-5.04-1.2-2.19-1.8-4.78-1.8-7.76s.6-5.52,1.8-7.71c1.2-2.19,2.85-3.87,4.96-5.04,2.11-1.16,4.53-1.75,7.27-1.75s5.2.57,7.27,1.72c2.07,1.15,3.67,2.72,4.78,4.73,1.11,2,1.67,4.24,1.67,6.71,0,.96-.07,1.8-.21,2.52ZM162.44,64.5c-.7-1.25-1.66-2.18-2.88-2.78-1.22-.6-2.54-.9-3.98-.9-2.3,0-4.22.7-5.76,2.11-1.54,1.41-2.38,3.48-2.52,6.22h16.09c.07-1.85-.25-3.4-.95-4.65Z"/>
    <path class="cls-3" d="M184.93,57.66c1.78-1.08,3.84-1.62,6.17-1.62v6.37h-1.75c-2.57,0-4.63.63-6.19,1.88-1.56,1.25-2.34,3.32-2.34,6.19v14.34h-5.86v-28.32h5.86v5.55c.96-1.85,2.33-3.32,4.11-4.39Z"/>
    <path class="cls-2" d="M195.67,45.81c.69-.65,1.59-.98,2.72-.98s2.05.33,2.75.98c.7.65,1.05,1.47,1.05,2.47s-.35,1.8-1.05,2.42c-.7.62-1.62.93-2.75.93s-2.04-.31-2.72-.93c-.69-.62-1.03-1.42-1.03-2.42s.34-1.82,1.03-2.47Z"/>
    <rect class="cls-3" x="195.46" y="56.5" width="5.86" height="28.32"/>
    <path class="cls-3" d="M222.66,79.74v5.09h-3.6c-3.02,0-5.3-.73-6.86-2.18-1.56-1.46-2.34-3.88-2.34-7.27v-13.88h-4.06v-4.99h4.06v-7.04h5.91v7.04h6.84v4.99h-6.84v13.98c0,1.61.3,2.72.9,3.34.6.62,1.65.93,3.16.93h2.83Z"/>
    <path class="cls-3" d="M246.09,58.05c1.82,1.27,3.1,2.95,3.85,5.04v-6.58h5.86v28.32h-5.86v-6.58c-.75,2.09-2.04,3.77-3.85,5.04-1.82,1.27-4.01,1.9-6.58,1.9s-4.67-.58-6.61-1.75c-1.94-1.16-3.45-2.84-4.55-5.04-1.1-2.19-1.64-4.78-1.64-7.76s.55-5.52,1.64-7.71c1.1-2.19,2.61-3.87,4.55-5.04,1.94-1.16,4.14-1.75,6.61-1.75s4.76.63,6.58,1.9ZM235.07,63.78c-1.56,1.66-2.34,3.95-2.34,6.86s.78,5.2,2.34,6.86c1.56,1.66,3.64,2.49,6.25,2.49,1.64,0,3.12-.39,4.42-1.16,1.3-.77,2.33-1.86,3.08-3.26.75-1.4,1.13-3.05,1.13-4.93s-.38-3.49-1.13-4.91c-.75-1.42-1.78-2.52-3.08-3.29-1.3-.77-2.78-1.16-4.42-1.16-2.6,0-4.69.83-6.25,2.49Z"/>
    <path class="cls-3" d="M280.15,58.69c2,1.7,3.23,3.97,3.68,6.81h-5.55c-.24-1.54-.9-2.78-1.98-3.73-1.08-.94-2.51-1.41-4.29-1.41-1.47,0-2.61.35-3.42,1.05-.81.7-1.21,1.65-1.21,2.85,0,.89.29,1.61.87,2.16.58.55,1.31.98,2.18,1.29.87.31,2.12.65,3.73,1.03,2.12.48,3.85.98,5.17,1.49,1.32.51,2.45,1.33,3.39,2.44.94,1.11,1.41,2.63,1.41,4.55,0,2.36-.9,4.28-2.7,5.76-1.8,1.47-4.22,2.21-7.27,2.21-3.53,0-6.38-.82-8.56-2.47-2.18-1.64-3.49-3.94-3.93-6.89h5.71c.17,1.54.86,2.79,2.06,3.75,1.2.96,2.78,1.44,4.73,1.44,1.4,0,2.51-.37,3.32-1.11.8-.74,1.21-1.67,1.21-2.8,0-.99-.31-1.78-.93-2.36-.62-.58-1.39-1.04-2.31-1.36-.93-.33-2.19-.66-3.8-1-2.06-.48-3.73-.96-5.01-1.44-1.28-.48-2.38-1.26-3.29-2.34-.91-1.08-1.36-2.54-1.36-4.39,0-2.4.9-4.34,2.7-5.83,1.8-1.49,4.29-2.24,7.48-2.24s5.99.85,7.99,2.54Z"/>
    <g>
      <path class="cls-1" d="M120.94,98.23h-2.42l-.43,1.21h-1.27l2.22-5.96h1.37l2.21,5.96h-1.27l-.42-1.21ZM120.62,97.32l-.89-2.54-.89,2.54h1.78Z"/>
      <path class="cls-1" d="M134.03,93.49v5.96h-1.19v-4.16l-1.53,4.16h-1.04l-1.53-4.14v4.14h-1.2v-5.96h1.46l1.81,4.48,1.77-4.48h1.45Z"/>
      <path class="cls-1" d="M140.58,98.52h2.02v.92h-3.23v-6.02h1.2v5.1Z"/>
      <path class="cls-1" d="M154.9,97.21v2.24h-1.2v-6.02h2.19c.71,0,1.25.17,1.61.51.36.34.54.81.54,1.39s-.19,1.03-.56,1.37c-.37.34-.9.51-1.59.51h-.99ZM156.82,95.32c0-.3-.08-.53-.25-.69s-.44-.24-.81-.24h-.86v1.85h.86c.71,0,1.06-.31,1.06-.92Z"/>
      <path class="cls-1" d="M167.44,93.73c.46.26.82.63,1.08,1.1.26.47.4,1,.4,1.59s-.13,1.12-.4,1.6c-.26.47-.63.84-1.08,1.1-.46.26-.97.39-1.53.39s-1.07-.13-1.53-.39c-.46-.26-.82-.63-1.08-1.1-.26-.47-.4-1-.4-1.6s.13-1.12.4-1.59c.26-.47.63-.83,1.08-1.1.46-.26.97-.39,1.53-.39s1.07.13,1.53.39ZM164.98,94.68c-.27.16-.48.39-.63.69s-.23.65-.23,1.05.08.75.23,1.05c.15.3.36.53.63.69.27.16.58.24.93.24s.66-.08.93-.24c.27-.16.48-.39.63-.69.15-.3.23-.65.23-1.05s-.08-.75-.23-1.05-.36-.53-.63-.69c-.27-.16-.58-.24-.93-.24s-.66.08-.93.24Z"/>
      <path class="cls-1" d="M181.99,93.42l-1.48,6.02h-1.48l-1.13-4.37-1.14,4.37h-1.48l-1.48-6.02h1.31l.92,4.67,1.19-4.67h1.32l1.2,4.67.92-4.67h1.31Z"/>
      <path class="cls-1" d="M188.27,94.38v1.56h2.13v.92h-2.13v1.62h2.39v.96h-3.59v-6.02h3.59v.96h-2.39Z"/>
      <path class="cls-1" d="M198.95,99.45l-1.41-2.35h-.53v2.35h-1.2v-6.02h2.3c.7,0,1.23.17,1.6.51.37.34.55.79.55,1.35,0,.46-.13.84-.38,1.14-.25.31-.62.51-1.1.61l1.5,2.41h-1.33ZM197.01,96.27h.99c.69,0,1.03-.3,1.03-.91,0-.29-.08-.52-.25-.68-.17-.16-.43-.24-.78-.24h-.99v1.83Z"/>
      <path class="cls-1" d="M212.64,97.21v2.24h-1.2v-6.02h2.19c.71,0,1.25.17,1.61.51.36.34.54.81.54,1.39s-.19,1.03-.56,1.37c-.37.34-.9.51-1.59.51h-.99ZM214.56,95.32c0-.3-.08-.53-.25-.69s-.44-.24-.81-.24h-.86v1.85h.86c.71,0,1.06-.31,1.06-.92Z"/>
      <path class="cls-1" d="M222.03,98.52h2.02v.92h-3.23v-6.02h1.2v5.1Z"/>
      <path class="cls-1" d="M232.7,98.23h-2.42l-.43,1.21h-1.27l2.22-5.96h1.37l2.21,5.96h-1.27l-.42-1.21ZM232.37,97.32l-.89-2.54-.89,2.54h1.78Z"/>
      <path class="cls-1" d="M243.39,93.42v.96h-1.66v5.07h-1.2v-5.07h-1.66v-.96h4.52Z"/>
      <path class="cls-1" d="M252.05,93.42v.96h-2.53v1.61h2.03v.92h-2.03v2.53h-1.2v-6.02h3.74Z"/>
      <path class="cls-1" d="M261.48,93.73c.46.26.82.63,1.08,1.1.26.47.4,1,.4,1.59s-.13,1.12-.4,1.6c-.26.47-.63.84-1.08,1.1-.46.26-.97.39-1.53.39s-1.07-.13-1.53-.39c-.46-.26-.82-.63-1.08-1.1-.26-.47-.4-1-.4-1.6s.13-1.12.4-1.59c.26-.47.63-.83,1.08-1.1.46-.26.97-.39,1.53-.39s1.07.13,1.53.39ZM259.02,94.68c-.27.16-.48.39-.63.69s-.23.65-.23,1.05.08.75.23,1.05c.15.3.36.53.63.69.27.16.58.24.93.24s.66-.08.93-.24c.27-.16.48-.39.63-.69.15-.3.23-.65.23-1.05s-.08-.75-.23-1.05-.36-.53-.63-.69c-.27-.16-.58-.24-.93-.24s-.66.08-.93.24Z"/>
      <path class="cls-1" d="M271.26,99.45l-1.41-2.35h-.53v2.35h-1.2v-6.02h2.3c.7,0,1.23.17,1.6.51.37.34.55.79.55,1.35,0,.46-.13.84-.38,1.14-.25.31-.62.51-1.1.61l1.5,2.41h-1.33ZM269.32,96.27h.99c.69,0,1.03-.3,1.03-.91,0-.29-.08-.52-.25-.68-.17-.16-.43-.24-.78-.24h-.99v1.83Z"/>
      <path class="cls-1" d="M284.13,93.49v5.96h-1.19v-4.16l-1.53,4.16h-1.04l-1.53-4.14v4.14h-1.2v-5.96h1.46l1.81,4.48,1.77-4.48h1.45Z"/>
    </g>
  </g>
</svg>